<svg width="12" height="22" viewBox="0 0 12 22" fill="none" xmlns="http://www.w3.org/2000/svg">
<path d="M11.625 11C11.6251 10.8769 11.6009 10.7549 11.5538 10.6412C11.5066 10.5274 11.4375 10.4241 11.3503 10.3372L1.97531 0.962185C1.60898 0.595857 1.01578 0.595857 0.649685 0.962185C0.283591 1.32851 0.283357 1.92172 0.649685 2.28781L9.36187 11L0.649685 19.7122C0.283357 20.0785 0.283357 20.6717 0.649685 21.0378C1.01601 21.4039 1.60922 21.4041 1.97531 21.0378L11.3503 11.6628C11.4375 11.5759 11.5066 11.4726 11.5538 11.3588C11.6009 11.2451 11.6251 11.1231 11.625 11Z" fill="#0D6EFD"/>
</svg>
