<svg width="34" height="30" viewBox="0 0 34 30" fill="none" xmlns="http://www.w3.org/2000/svg">
<path fill-rule="evenodd" clip-rule="evenodd" d="M20.8854 12.8307C20.8005 12.9456 20.6739 13.0226 20.5328 13.0451C20.3917 13.0676 20.2474 13.0338 20.131 12.951C20.0145 12.8681 19.9353 12.7429 19.9103 12.6022C19.8852 12.4615 19.9165 12.3167 19.9972 12.1988L24.0101 6.58064C24.095 6.46572 24.2217 6.38873 24.3628 6.36624C24.5039 6.34375 24.6482 6.37756 24.7646 6.46039C24.881 6.54322 24.9603 6.66845 24.9853 6.80913C25.0103 6.94981 24.9791 7.09468 24.8984 7.21257L20.8854 12.8307ZM7.08986 6.52461H11.1443C11.161 6.52473 11.1771 6.51909 11.1901 6.50863C11.2031 6.49817 11.212 6.48355 11.2154 6.46725C11.5804 4.78715 12.9446 2.55495 13.4069 0.870155C13.4105 0.85702 13.4103 0.84315 13.4064 0.830113C13.4025 0.817076 13.395 0.805392 13.3848 0.79638C13.3746 0.787368 13.3621 0.781388 13.3487 0.779115C13.3353 0.776843 13.3215 0.778369 13.3089 0.783521C11.3335 1.59636 10.7189 2.40517 8.3918 1.14046C7.80088 0.819332 7.19234 0.509026 6.44006 0.567984C6.24096 0.583583 5.25712 0.808849 4.90211 0.90798C4.89225 0.910694 4.88308 0.915459 4.87519 0.921964C4.8673 0.928468 4.86087 0.936565 4.85633 0.945724C4.85178 0.954884 4.84923 0.9649 4.84882 0.975117C4.84841 0.985334 4.85017 0.995522 4.85397 1.00501L7.02201 6.47866C7.02728 6.49232 7.0366 6.50405 7.04873 6.51227C7.06086 6.52048 7.07521 6.52479 7.08986 6.52461ZM7.23 9.22437H10.973C10.9836 9.22442 10.994 9.22215 11.0036 9.21773C11.0133 9.21331 11.0218 9.20683 11.0286 9.19876C11.0355 9.19069 11.0405 9.18121 11.0433 9.17101C11.0461 9.1608 11.0466 9.1501 11.0448 9.13966C10.9627 8.64191 10.9476 8.20253 11.0046 7.69875C11.0058 7.68855 11.0048 7.67821 11.0017 7.66842C10.9986 7.65863 10.9935 7.6496 10.9866 7.64194C10.9798 7.63429 10.9714 7.62817 10.962 7.62399C10.9526 7.61982 10.9425 7.61769 10.9322 7.61773H7.27042C7.26032 7.61769 7.25031 7.61976 7.24105 7.62381C7.23179 7.62786 7.22348 7.63379 7.21664 7.64124C7.20981 7.64868 7.2046 7.65747 7.20135 7.66704C7.19811 7.67661 7.19689 7.68675 7.19779 7.69682C7.24115 8.20161 7.23444 8.64451 7.15796 9.14042C7.15633 9.15081 7.15698 9.16142 7.15986 9.17154C7.16273 9.18165 7.16777 9.19103 7.17462 9.19901C7.18146 9.20699 7.18996 9.21339 7.19952 9.21776C7.20908 9.22214 7.21948 9.22439 7.23 9.22437ZM14.684 15.8287C13.4455 14.1691 12.0348 12.2785 11.3644 10.3663C11.3595 10.352 11.3503 10.3395 11.3379 10.3308C11.3255 10.322 11.3107 10.3174 11.2956 10.3176H6.91206C6.89698 10.3174 6.88223 10.322 6.86992 10.3307C6.8576 10.3394 6.84834 10.3518 6.84346 10.366C6.28155 11.9456 5.15153 13.5098 3.81268 15.3631C3.3619 15.9871 2.88629 16.6454 2.3903 17.3646C0.552702 20.029 0.437721 23.8018 2.31063 26.4791C3.75305 28.541 6.55101 29.4372 9.09754 29.4372V29.4394C11.6411 29.4394 14.442 28.541 15.8845 26.4791C17.7574 23.8017 17.6424 20.029 15.8047 17.3646C15.4951 16.9157 15.0993 16.3853 14.684 15.8287ZM12.2557 16.9835C12.3859 17.0469 12.4856 17.1595 12.5328 17.2964C12.5801 17.4333 12.571 17.5834 12.5076 17.7136C12.4442 17.8438 12.3316 17.9435 12.1947 17.9907C12.0578 18.038 11.9077 18.0289 11.7775 17.9655C10.9429 17.5591 10.0396 17.3805 9.05955 17.3584C8.64064 17.3489 8.09374 17.4768 7.71441 17.6387L7.71466 17.6392C7.18152 17.8655 6.79138 18.1921 6.7533 18.7469C6.74189 18.9136 6.85386 19.1621 6.97244 19.3091C7.13296 19.5081 7.38171 19.6885 7.71877 19.8502L7.71894 19.8499C8.68425 20.2652 9.14535 20.036 10.0669 20.2241C11.2942 20.4747 12.4949 21.2315 12.5757 22.5758C12.577 22.5988 12.5769 22.6216 12.5757 22.6441C12.483 24.1253 11.0497 24.8835 9.70817 25.0468C9.69049 25.0489 9.67419 25.0574 9.66238 25.0708C9.65056 25.0841 9.64406 25.1013 9.6441 25.1191V25.7236C9.6441 25.8686 9.58652 26.0076 9.48402 26.1101C9.38152 26.2126 9.2425 26.2702 9.09754 26.2702C8.95259 26.2702 8.81357 26.2126 8.71107 26.1101C8.60857 26.0076 8.55098 25.8686 8.55098 25.7236V25.1262C8.55103 25.1079 8.54421 25.0903 8.53189 25.0769C8.51957 25.0635 8.50264 25.0552 8.48448 25.0536C7.60245 24.9764 6.74248 24.7498 5.93325 24.3731C5.80382 24.3108 5.70414 24.2 5.6558 24.0647C5.60746 23.9294 5.61435 23.7805 5.67498 23.6503C5.7356 23.52 5.84508 23.4189 5.97972 23.3688C6.11436 23.3187 6.26332 23.3236 6.39435 23.3825C7.52404 23.9083 9.29236 24.2738 10.5133 23.7174C11.0392 23.4806 11.4276 23.1577 11.4833 22.6114C11.4838 22.6066 11.4838 22.6018 11.4833 22.5971C11.3849 21.5915 9.98334 21.2222 9.11926 21.2206C8.48565 21.2194 7.85506 21.0975 7.28753 20.8533L7.28787 20.8526C6.36391 20.4378 5.72577 19.7636 5.66387 18.7844C5.66229 18.7626 5.66201 18.7407 5.66303 18.7189C5.71218 17.709 6.35342 17.0339 7.29181 16.6357L7.29198 16.6362C7.67902 16.4652 8.07051 16.3608 8.48699 16.3088C8.50463 16.3067 8.52087 16.2981 8.53263 16.2848C8.54439 16.2715 8.55086 16.2543 8.55082 16.2365V15.6286C8.55082 15.4836 8.6084 15.3446 8.7109 15.2421C8.8134 15.1396 8.95242 15.082 9.09737 15.082C9.24233 15.082 9.38135 15.1396 9.48385 15.2421C9.58635 15.3446 9.64393 15.4836 9.64393 15.6286V16.2295C9.64393 16.2673 9.67262 16.2987 9.71035 16.302C10.6238 16.3836 11.4699 16.6009 12.2557 16.9835ZM24.2345 11.4377C23.945 11.7272 24.3846 12.1667 24.674 11.8772C24.9635 11.5877 24.524 11.1482 24.2345 11.4377ZM20.7521 7.75393C20.7521 7.34475 20.1305 7.34475 20.1305 7.75393C20.1305 8.16312 20.7521 8.16312 20.7521 7.75393ZM29.1273 9.47362H32.9231C32.9414 9.47363 32.959 9.46676 32.9725 9.45436C32.9859 9.44195 32.9942 9.42494 32.9957 9.40669C33.1226 7.84191 33.1977 2.02802 30.2341 3.21574C30.1711 3.24098 30.1373 3.31529 30.0878 3.37039C29.446 4.08544 29.0544 5.02952 29.0544 6.061V9.40074C29.0544 9.44091 29.0871 9.47362 29.1273 9.47362ZM23.4616 12.6501C24.01 13.1984 24.8986 13.1984 25.4469 12.6501C26.3295 11.7675 25.7005 10.2536 24.4543 10.2536C23.208 10.2536 22.5791 11.7676 23.4616 12.6501ZM27.8667 24.8013V6.061C27.8667 4.97006 28.3059 3.97163 29.0202 3.24224C29.0303 3.23199 29.0371 3.219 29.0398 3.2049C29.0424 3.19081 29.0409 3.17623 29.0353 3.163C29.0298 3.14977 29.0204 3.13848 29.0085 3.13054C28.9965 3.1226 28.9825 3.11837 28.9682 3.11837L20.1232 3.11829C18.506 3.11829 17.1807 4.44363 17.1807 6.06083V17.5047C17.1807 17.5174 17.1835 17.5283 17.1896 17.5396C18.8023 20.5007 18.7276 24.3143 16.7769 27.1024C16.6505 27.2828 16.515 27.4567 16.371 27.6235C16.3619 27.634 16.356 27.647 16.354 27.6608C16.3521 27.6746 16.3541 27.6887 16.3599 27.7014C16.3657 27.7141 16.375 27.7248 16.3868 27.7324C16.3985 27.7399 16.4122 27.7439 16.4261 27.7439H24.9242V27.7461C26.5374 27.7461 27.8667 26.4199 27.8667 24.8013ZM19.4487 8.74658C19.997 9.2949 20.8857 9.2949 21.434 8.74658C22.3165 7.86405 21.6875 6.35009 20.4413 6.35009C19.195 6.35 18.5663 7.86422 19.4487 8.74658ZM19.7953 16.4587C19.7953 16.3137 19.8529 16.1747 19.9554 16.0722C20.0579 15.9697 20.1969 15.9121 20.3419 15.9121H25.7553C25.9003 15.9121 26.0393 15.9697 26.1418 16.0722C26.2443 16.1747 26.3019 16.3137 26.3019 16.4587C26.3019 16.6037 26.2443 16.7427 26.1418 16.8452C26.0393 16.9477 25.9003 17.0053 25.7553 17.0053H20.3419C20.1969 17.0053 20.0579 16.9477 19.9554 16.8452C19.8529 16.7427 19.7953 16.6037 19.7953 16.4587ZM19.7953 24.3465C19.7953 24.2016 19.8529 24.0626 19.9554 23.9601C20.0579 23.8576 20.1969 23.8 20.3419 23.8H25.7553C25.9003 23.8 26.0393 23.8576 26.1418 23.9601C26.2443 24.0626 26.3019 24.2016 26.3019 24.3465C26.3019 24.4915 26.2443 24.6305 26.1418 24.733C26.0393 24.8355 25.9003 24.8931 25.7553 24.8931H20.3419C20.1969 24.8931 20.0579 24.8355 19.9554 24.733C19.8529 24.6305 19.7953 24.4915 19.7953 24.3465ZM19.7953 20.4026C19.7953 20.2577 19.8529 20.1186 19.9554 20.0161C20.0579 19.9136 20.1969 19.8561 20.3419 19.8561H25.7553C25.9003 19.8561 26.0393 19.9136 26.1418 20.0161C26.2443 20.1186 26.3019 20.2577 26.3019 20.4026C26.3019 20.5476 26.2443 20.6866 26.1418 20.7891C26.0393 20.8916 25.9003 20.9492 25.7553 20.9492H20.3419C20.1969 20.9492 20.0579 20.8916 19.9554 20.7891C19.8529 20.6866 19.7953 20.5476 19.7953 20.4026Z" fill="#0D6EFD"/>
</svg>
