<svg width="127" height="38" viewBox="0 0 127 38" fill="none" xmlns="http://www.w3.org/2000/svg">
<path d="M19.0831 0.0626526C8.57575 0.0626526 0.0574341 8.54321 0.0574341 19.0043C0.0574341 29.4658 8.57575 37.9457 19.0831 37.9457C29.5916 37.9457 38.109 29.4658 38.109 19.0043C38.109 8.54389 29.5916 0.0635573 19.0829 0.0635573L19.0831 0.0626526ZM27.8082 27.3819C27.4674 27.9384 26.7358 28.1148 26.177 27.7732C21.7099 25.0567 16.0865 24.4415 9.46384 25.9479C8.82566 26.0926 8.18952 25.6946 8.04412 25.059C7.89804 24.4234 8.2963 23.79 8.93608 23.6453C16.1835 21.9968 22.4001 22.7066 27.4151 25.7579C27.974 26.0994 28.1512 26.8255 27.8082 27.3819ZM30.1369 22.2243C29.7075 22.9192 28.7942 23.1386 28.0967 22.7111C22.9826 19.5815 15.187 18.6752 9.13805 20.5033C8.35356 20.7392 7.52499 20.299 7.28689 19.5193C7.05061 18.7383 7.49296 17.915 8.27608 17.6775C15.1857 15.5902 23.7755 16.6012 29.6484 20.1943C30.3459 20.6218 30.5663 21.5311 30.1369 22.2246V22.2243ZM30.3368 16.8537C24.2049 13.2276 14.0881 12.8942 8.2336 14.6632C7.29348 14.9471 6.29929 14.4187 6.01439 13.4828C5.7295 12.5463 6.25976 11.5572 7.20056 11.2726C13.9211 9.24146 25.0932 9.6339 32.153 13.8064C33.0004 14.3061 33.2776 15.3934 32.7755 16.2341C32.2757 17.076 31.1806 17.3536 30.3377 16.8537H30.3368ZM51.82 17.5485C48.5349 16.7686 47.951 16.2212 47.951 15.0711C47.951 13.9844 48.9779 13.2532 50.5069 13.2532C51.9882 13.2532 53.4558 13.8085 54.9962 14.9516C55.0416 14.9862 55.1007 15 55.1575 14.991C55.2166 14.9824 55.2665 14.951 55.3006 14.9037L56.9046 12.6526C56.9705 12.5599 56.9523 12.4321 56.8637 12.3613C55.0303 10.8972 52.9674 10.1854 50.5546 10.1854C47.0081 10.1854 44.5295 12.3045 44.5295 15.3366C44.5295 18.5881 46.6673 19.7394 50.3615 20.6281C53.5035 21.349 54.0352 21.9529 54.0352 23.0323C54.0352 24.2288 52.9628 24.973 51.2362 24.973C49.3187 24.973 47.7533 24.3284 46.0039 22.8219C45.9608 22.7835 45.9017 22.7676 45.8472 22.7699C45.7881 22.7744 45.7359 22.8016 45.6995 22.8446L43.9002 24.9753C43.8252 25.0657 43.8343 25.1969 43.9206 25.2738C45.9562 27.0834 48.4599 28.0379 51.1635 28.0379C54.9848 28.0379 57.4544 25.9592 57.4544 22.7405C57.4612 20.0246 55.8277 18.5205 51.8269 17.5515L51.82 17.5485ZM66.1013 14.3231C64.4451 14.3231 63.0865 14.9727 61.9641 16.3038V14.8055C61.9641 14.6872 61.8687 14.5909 61.7506 14.5909H58.8085C58.6903 14.5909 58.5949 14.6872 58.5949 14.8055V31.4534C58.5949 31.571 58.6903 31.6682 58.8085 31.6682H61.7506C61.8687 31.6682 61.9641 31.571 61.9641 31.4534V26.199C63.0865 27.4498 64.4451 28.0628 66.1013 28.0628C69.1797 28.0628 72.2968 25.7036 72.2968 21.1936C72.3014 16.6827 69.1843 14.3228 66.1036 14.3228L66.1013 14.3231ZM68.8753 21.1936C68.8753 23.4892 67.4554 25.0929 65.4197 25.0929C63.4091 25.0929 61.8914 23.4168 61.8914 21.1936C61.8914 18.9701 63.4091 17.2945 65.4197 17.2945C67.4213 17.2943 68.8753 18.9337 68.8753 21.1934V21.1936ZM80.2826 14.3231C76.3181 14.3231 73.2124 17.3621 73.2124 21.2427C73.2124 25.0816 76.2977 28.0876 80.2349 28.0876C84.213 28.0876 87.3278 25.059 87.3278 21.1936C87.3278 17.3413 84.2334 14.3235 80.2826 14.3235V14.3231ZM80.2826 25.1155C78.1742 25.1155 76.5839 23.4281 76.5839 21.1925C76.5839 18.9466 78.1197 17.3169 80.2349 17.3169C82.3568 17.3169 83.9563 19.0036 83.9563 21.2415C83.9563 23.4869 82.4114 25.1155 80.2826 25.1155ZM95.793 14.5909H92.5555V11.2962C92.5555 11.1781 92.4601 11.0817 92.3419 11.0817H89.3998C89.2816 11.0817 89.1839 11.1781 89.1839 11.2962V14.5909H87.7708C87.6527 14.5909 87.5573 14.6872 87.5573 14.8055V17.3223C87.5573 17.4404 87.6527 17.537 87.7708 17.537H89.1839V24.0501C89.1839 26.6807 90.4994 28.0153 93.0962 28.0153C94.1504 28.0153 95.025 27.7981 95.8497 27.3322C95.9179 27.296 95.9588 27.2236 95.9588 27.1467V24.7491C95.9588 24.6767 95.9202 24.6066 95.8566 24.5681C95.7929 24.5274 95.7134 24.5251 95.6475 24.5591C95.0818 24.8418 94.5343 24.973 93.9209 24.973C92.978 24.973 92.5555 24.5455 92.5555 23.591V17.5381H95.793C95.9111 17.5381 96.0065 17.4418 96.0065 17.3235V14.8069C96.011 14.6886 95.9156 14.5922 95.7952 14.5922L95.793 14.5909ZM107.071 14.6038V14.1991C107.071 13.0087 107.53 12.4778 108.557 12.4778C109.17 12.4778 109.663 12.599 110.215 12.7822C110.283 12.8035 110.354 12.7929 110.408 12.7524C110.465 12.7119 110.497 12.647 110.497 12.5782V10.1105C110.497 10.0162 110.438 9.9327 110.345 9.90488C109.763 9.73229 109.018 9.55519 107.9 9.55519C105.185 9.55519 103.747 11.0784 103.747 13.9584V14.5782H102.334C102.216 14.5782 102.118 14.6746 102.118 14.7926V17.3223C102.118 17.4404 102.216 17.537 102.334 17.537H103.747V27.581C103.747 27.7009 103.845 27.7959 103.963 27.7959H106.903C107.023 27.7959 107.118 27.7009 107.118 27.581V17.5377H109.865L114.073 27.581C113.596 28.635 113.125 28.8454 112.485 28.8454C111.967 28.8454 111.419 28.6916 110.863 28.3862C110.81 28.3591 110.747 28.3546 110.692 28.3704C110.635 28.3907 110.588 28.4315 110.565 28.4857L109.568 30.664C109.52 30.768 109.561 30.8879 109.661 30.9422C110.701 31.5031 111.64 31.7429 112.8 31.7429C114.972 31.7429 116.174 30.7341 117.231 28.0243L122.333 14.8969C122.361 14.8309 122.352 14.7562 122.311 14.6976C122.272 14.6395 122.206 14.6044 122.136 14.6044H119.073C118.98 14.6044 118.898 14.6626 118.869 14.7483L115.731 23.6679L112.296 14.7424C112.264 14.6594 112.185 14.6044 112.096 14.6044H107.071V14.6038ZM100.532 14.5909H97.59C97.4719 14.5909 97.3742 14.6872 97.3742 14.8055V27.581C97.3742 27.7009 97.4719 27.7959 97.59 27.7959H100.532C100.65 27.7959 100.748 27.7009 100.748 27.581V14.8064C100.748 14.6881 100.653 14.5918 100.532 14.5918V14.5909ZM99.0781 8.77347C97.9126 8.77347 96.9675 9.71261 96.9675 10.8727C96.9675 12.0336 97.9126 12.9738 99.0781 12.9738C100.244 12.9738 101.186 12.0336 101.186 10.8727C101.186 9.71284 100.241 8.77347 99.0781 8.77347ZM124.846 18.6987C123.683 18.6987 122.776 17.7679 122.776 16.6377C122.776 15.5074 123.694 14.566 124.858 14.566C126.021 14.566 126.927 15.4965 126.927 16.6259C126.927 17.7562 126.009 18.6987 124.846 18.6987ZM124.858 14.7709C123.797 14.7709 122.995 15.6101 122.995 16.6377C122.995 17.6648 123.792 18.4926 124.846 18.4926C125.907 18.4926 126.709 17.6542 126.709 16.6259C126.709 15.5988 125.912 14.7709 124.858 14.7709ZM125.316 16.8378L125.903 17.6539H125.407L124.88 16.9052H124.428V17.6539H124.015V15.4906H124.982C125.489 15.4906 125.821 15.7478 125.821 16.1808C125.823 16.5354 125.616 16.7521 125.319 16.8378H125.316ZM124.967 15.8618H124.428V16.5461H124.967C125.235 16.5461 125.396 16.4151 125.396 16.2036C125.396 15.981 125.235 15.8618 124.967 15.8618Z" fill="#C8C8C8"/>
</svg>
