<svg width="133" height="32" viewBox="0 0 133 32" fill="none" xmlns="http://www.w3.org/2000/svg">
<path d="M77.1401 17.0289C77.1401 13.8688 75.792 11.0766 71.2326 11.0766C68.8935 11.0766 67.0353 11.7456 66.0278 12.3312L66.7662 14.8665C67.6938 14.2826 69.1739 13.8017 70.5708 13.8017C72.879 13.7984 73.2572 15.1086 73.2572 15.951V16.1538C68.2186 16.1457 65.0335 17.8926 65.0335 21.4502C65.0335 23.6241 66.6505 25.6622 69.4771 25.6622C71.2017 25.6622 72.659 24.9637 73.5294 23.8613H73.6142C73.6142 23.8613 74.188 26.2706 77.3618 25.3497C77.2004 24.3405 77.1401 23.2773 77.1401 21.9851V17.0289ZM73.3812 20.3658C73.3812 20.6209 73.36 20.8859 73.285 21.1133C72.9948 22.0865 71.9939 22.9011 70.7485 22.9011C69.6972 22.9011 68.8723 22.3041 68.8723 21.0528C68.8723 19.139 70.9783 18.6123 73.3812 18.6254" fill="#834BF3"/>
<path d="M0 6.77687C0 6.77687 3.2911 20.2877 3.81438 22.4763C4.43053 25.0345 5.5341 25.98 8.71929 25.3502L10.7764 16.9722C11.2964 14.8965 11.6501 13.408 11.986 11.293H12.043C12.2761 13.4293 12.6119 14.8965 13.0373 16.9787C13.0373 16.9787 13.8768 20.785 14.3121 22.7789C14.7359 24.7728 15.9291 26.0307 19.054 25.3502L23.9507 6.77687H19.9978L18.3172 14.8114C17.8722 17.139 17.4679 18.9726 17.1533 21.1056H17.0962C16.8126 18.9955 16.4524 17.2372 15.9894 14.957L14.2485 6.77687H10.1244L8.2661 14.7476C7.7363 17.1816 7.24078 19.1329 6.92942 21.1988H6.87565C6.55454 19.2605 6.11931 16.7923 5.65796 14.4499C5.65796 14.4499 4.5544 8.74298 4.16484 6.77687" fill="#834BF3"/>
<path d="M34.9669 17.0289C34.9669 13.8688 33.6155 11.0766 29.0562 11.0766C26.7236 11.0766 24.862 11.7456 23.8547 12.3312L24.593 14.8665C25.5173 14.2826 26.9958 13.8017 28.3977 13.8017C30.7058 13.7984 31.084 15.1086 31.084 15.951V16.1538C26.0455 16.1457 22.8571 17.8926 22.8571 21.4502C22.8571 23.6241 24.4806 25.6622 27.2941 25.6622C29.035 25.6622 30.4793 24.9637 31.3498 23.8613H31.4377C31.4377 23.8613 32.0148 26.2706 35.1853 25.3497C35.0223 24.3405 34.9669 23.2773 34.9669 21.9851V17.0289ZM31.2047 20.3658C31.2047 20.6209 31.1835 20.8859 31.1118 21.1133C30.8183 22.0865 29.8175 22.9011 28.5688 22.9011C27.5239 22.9011 26.6959 22.3041 26.6959 21.0528C26.6959 19.139 28.8019 18.6123 31.2047 18.6254" fill="#834BF3"/>
<path d="M37.0181 6.77687V25.3437H40.7803V6.77687H37.0181Z" fill="#834BF3"/>
<path d="M88.6868 6.77687V20.4758C88.6868 22.3667 89.0405 23.6851 89.8017 24.4931C90.4701 25.2014 91.5638 25.6626 92.8663 25.6626C93.9846 25.6626 95.0783 25.4467 95.5951 25.2586L95.5494 22.3095C95.1631 22.3994 94.7213 22.4763 94.1149 22.4763C92.8305 22.4763 92.4066 21.6601 92.4066 19.9622V14.7182H95.6831V11.1704H92.4066V6.77687" fill="#834BF3"/>
<path d="M78.9628 11.3989V25.3497H82.8521V18.205C82.8521 17.8206 82.8765 17.4886 82.9369 17.1811C83.227 15.6746 84.3664 14.721 86.0079 14.721C86.466 14.721 86.7773 14.7717 87.1229 14.8257V11.1682C86.8327 11.1159 86.6355 11.0881 86.2785 11.0881C84.8229 11.0881 83.1732 12.0155 82.4771 14.0356H82.381V11.3989" fill="#834BF3"/>
<path d="M42.9651 11.3989V25.3497H46.7549V17.1614C46.7549 16.777 46.7973 16.3845 46.9326 16.0295C47.2407 15.2002 48.0052 14.2401 49.2327 14.2401C50.7584 14.2401 51.4789 15.5323 51.4789 17.397V25.3497H55.2591V17.0633C55.2591 16.7018 55.3096 16.2585 55.4155 15.9379C55.7187 14.9974 56.5468 14.2401 57.6912 14.2401C59.2332 14.2401 59.9798 15.5045 59.9798 17.7028V25.3497H63.7566V17.1238C63.7566 12.8023 61.5658 11.0881 59.0783 11.0881C57.9846 11.0881 57.1141 11.358 56.3316 11.8421C55.6698 12.2494 55.0896 12.8236 54.5695 13.5743H54.5125C53.9143 12.0728 52.5091 11.0881 50.6736 11.0881C48.3198 11.0881 47.2505 12.2805 46.6213 13.2881H46.5642V11.3989" fill="#834BF3"/>
<path d="M116.038 10.7727C116.781 10.7727 117.407 10.3834 117.488 9.88289L118.225 1.50812C118.225 0.678817 117.252 0 116.038 0C114.817 0 113.85 0.678817 113.85 1.50812L114.593 9.88289C114.672 10.3834 115.294 10.7727 116.038 10.7727Z" fill="#834BF3"/>
<path d="M111.517 13.3933C111.885 12.739 111.864 12.0127 111.466 11.6889L104.587 6.86192C103.872 6.44319 102.801 6.94208 102.188 7.99874C101.577 9.05376 101.7 10.238 102.401 10.6486L110.017 14.1915C110.505 14.3747 111.142 14.0345 111.517 13.3867" fill="#834BF3"/>
<path d="M120.557 13.3864C120.947 14.0341 121.584 14.3744 122.059 14.201L129.674 10.6482C130.382 10.2295 130.488 9.0567 129.889 8.00168C129.278 6.94501 128.201 6.4494 127.487 6.85996L120.606 11.682C120.225 12.0108 120.197 12.7403 120.565 13.3929" fill="#834BF3"/>
<path d="M116.038 21.2338C116.781 21.2338 117.407 21.6231 117.488 22.1236L118.225 30.4984C118.225 31.3277 117.252 32 116.038 32C114.817 32 113.85 31.3277 113.85 30.4984L114.593 22.1236C114.672 21.6231 115.294 21.2338 116.038 21.2338Z" fill="#834BF3"/>
<path d="M120.557 18.6206C120.947 17.9713 121.584 17.6245 122.059 17.8126L129.674 21.3588C130.382 21.7694 130.488 22.952 129.889 24.0086C129.278 25.0571 128.201 25.556 127.487 25.1454L120.606 20.3169C120.225 19.9914 120.197 19.2651 120.565 18.6206" fill="#834BF3"/>
<path d="M111.517 18.6134C111.885 19.2661 111.864 19.9907 111.466 20.3178L104.587 25.1382C103.872 25.557 102.801 25.0565 102.188 24.008C101.577 22.9529 101.7 21.7687 102.401 21.3581L110.017 17.8119C110.505 17.6255 111.142 17.969 111.517 18.6134Z" fill="#834BF3"/>
<path d="M131.903 24.4105H131.998C132.126 24.4105 132.178 24.4514 132.193 24.5545C132.221 24.669 132.236 24.7458 132.263 24.7786H132.508C132.487 24.754 132.459 24.6919 132.444 24.5479C132.416 24.4236 132.353 24.3533 132.263 24.3287V24.3058C132.387 24.278 132.459 24.1946 132.459 24.0916C132.459 23.9983 132.416 23.9313 132.374 23.8887C132.293 23.8495 132.214 23.8184 132.041 23.8184C131.888 23.8184 131.776 23.8315 131.686 23.8527V24.7786H131.903V24.4105ZM131.909 23.9885L132.02 23.9738C132.151 23.9738 132.221 24.0343 132.221 24.1194C132.221 24.2142 132.126 24.2584 132.006 24.2584H131.909V23.9885ZM132.048 23.3604C131.513 23.3604 131.09 23.7791 131.09 24.2928C131.09 24.8194 131.513 25.2382 132.048 25.2382C132.589 25.2382 133 24.8194 133 24.2928C133 23.7791 132.589 23.3604 132.048 23.3604ZM132.048 23.5485C132.459 23.5485 132.764 23.8822 132.764 24.2928C132.764 24.7066 132.459 25.0501 132.048 25.0435C131.637 25.0435 131.326 24.7066 131.326 24.2928C131.326 23.8822 131.637 23.5485 132.041 23.5485" fill="#834BF3"/>
</svg>
