<svg width="117" height="28" viewBox="0 0 117 28" fill="none" xmlns="http://www.w3.org/2000/svg">
<path d="M115.241 26.3732C115.242 26.3732 115.243 26.3732 115.246 26.3732C115.533 26.3732 115.77 26.1395 115.77 25.8554C115.77 25.8454 115.77 25.8356 115.769 25.8256C115.769 25.4372 115.532 25.2516 115.045 25.2516H114.258V27.2852H114.555V26.3987H114.918L114.926 26.4095L115.49 27.2852H115.807L115.2 26.3789L115.241 26.3732ZM114.898 26.1695H114.555V25.4821H114.99C115.214 25.4821 115.47 25.5183 115.47 25.8088C115.47 26.1429 115.212 26.1695 114.897 26.1695H114.898ZM0 4.1376H4.36623V19.847H12.4497V23.827H0V4.1376ZM14.3801 10.477H18.5748V23.8196H14.3801V10.477ZM16.4774 3.84369C17.8121 3.84394 18.9103 4.92879 18.9103 6.24714C18.9103 7.56562 17.8119 8.65059 16.477 8.65059C15.1421 8.65059 14.0437 7.56562 14.0437 6.24714C14.0437 4.92866 15.1425 3.84369 16.4774 3.84369C16.4775 3.84369 16.4772 3.84369 16.4774 3.84369ZM36.1213 4.1346H40.316V15.9015L45.07 10.471H50.2128L44.7073 16.6481L50.0969 23.8252H44.8248L40.372 17.2298H40.3169V23.8243H36.1222L36.1213 4.1346ZM20.9006 10.4783H24.9287V12.3017H24.986C25.8046 10.9163 27.3348 10.086 28.9578 10.1464C33.2114 10.1464 33.9943 12.9107 33.9943 16.5018V23.8187H29.7997V17.3317C29.7997 15.7833 29.7709 13.7928 27.615 13.7928C25.4347 13.7928 25.0983 15.479 25.0983 17.2191V23.8171H20.9036L20.9006 10.4783Z" fill="#0974B8"/>
<path d="M59.0453 15.5965C59.0457 15.577 59.046 15.5574 59.046 15.5379C59.046 14.1751 57.9107 13.0537 56.531 13.0537C56.5106 13.0537 56.4903 13.054 56.47 13.0545C54.9549 12.9613 53.6251 14.1017 53.5058 15.5965H59.0453ZM62.5985 21.509C61.1878 23.1987 59.0795 24.1744 56.8624 24.1637C52.6677 24.1637 49.3094 21.3981 49.3094 17.1156C49.3094 12.8331 52.6673 10.0688 56.8624 10.0688C60.783 10.0688 63.2416 12.8309 63.2416 17.1156V18.4147H53.5058C53.7553 19.931 55.112 21.0459 56.667 21.0124C57.8789 21.0049 59.0075 20.3902 59.6605 19.3818L62.5985 21.509ZM71.9849 13.7022C69.8876 13.7022 68.6292 15.0855 68.6292 17.101C68.6292 19.1165 69.8871 20.5008 71.9849 20.5008C74.0826 20.5008 75.3437 19.1198 75.3437 17.101C75.3437 15.082 74.0848 13.7022 71.9849 13.7022ZM79.2053 23.8172H75.3437V22.0477H75.2864C74.3051 23.3513 72.7608 24.1293 71.1162 24.1486C67.0859 24.1486 64.431 21.2755 64.431 17.2127C64.431 13.4814 66.7805 10.055 70.6425 10.055C72.3785 10.055 74.0001 10.5241 74.9513 11.8244H75.0064V4.13333H79.2048L79.2053 23.8172ZM107.523 23.8249H103.328V17.3366C103.328 15.7894 103.3 13.7977 101.147 13.7977C98.962 13.7977 98.6277 15.4833 98.6277 17.2239V23.8244H94.4332V10.4818H98.4599V12.3052H98.5164C99.3363 10.9206 100.866 10.0905 102.489 10.15C106.741 10.15 107.525 12.912 107.525 16.5054L107.523 23.8249ZM89.7002 8.65795C89.7 8.65795 89.7004 8.65795 89.7002 8.65795C88.3649 8.65795 87.2655 7.57272 87.2655 6.25375C87.2655 4.93477 88.3644 3.84942 89.6997 3.84942C91.035 3.84942 92.1337 4.93452 92.1339 6.25325C92.1339 6.253 92.1339 6.25337 92.1339 6.25325C92.1339 7.57197 91.0354 8.65782 89.7002 8.65795ZM91.7975 23.8249H87.5985V10.4818H91.7975V23.8249ZM109.614 0.00192904H85.4906C84.3583 -0.0107029 83.4156 0.898796 83.4017 2.01729V25.9435C83.415 27.0626 84.3576 27.9731 85.4906 27.9611H109.614C110.75 27.9752 111.696 27.0648 111.711 25.9435V2.01566C111.696 0.894794 110.749 -0.014581 109.614 0.000177127V0.00192904ZM114.934 24.3458C113.881 24.3558 113.021 25.2133 113.021 26.2524C113.021 27.2985 113.893 28.1592 114.951 28.1592C116.011 28.1592 116.882 27.2985 116.882 26.2524C116.882 25.2133 116.022 24.3558 114.97 24.3458H114.934ZM114.934 27.9408C114.923 27.9409 114.915 27.9411 114.904 27.9411C113.976 27.9411 113.213 27.1864 113.213 26.2691C113.213 25.352 113.976 24.5972 114.904 24.5972C115.822 24.5972 116.582 25.3348 116.597 26.2413V26.2694C116.616 27.1665 115.886 27.9206 114.978 27.9399H114.934" fill="#0974B8"/>
</svg>
