<svg width="36" height="36" viewBox="0 0 36 36" fill="none" xmlns="http://www.w3.org/2000/svg">
<rect x="0.5" y="0.5" width="35" height="35" rx="11.5" stroke="white"/>
<g clip-path="url(#clip0_2020_3987)">
<path d="M25.4947 19.7873C26.7278 14.2594 21.8803 9.24182 16.1823 10.1986C13.0994 8.28506 8.99603 10.4537 8.99603 14.1319C8.99603 14.9823 9.22991 15.7902 9.63387 16.4706C8.50703 22.0198 13.3758 26.9736 19.0738 25.9318C23.0922 28.0579 27.5145 23.827 25.4947 19.7873ZM20.0944 23.1253C18.6061 23.7419 16.1398 23.7419 14.6515 22.9553C12.5254 21.8284 12.1639 19.2771 13.9924 19.2771C15.3744 19.2771 14.9279 20.8929 16.3311 21.5308C16.969 21.8284 18.3509 21.8497 19.1376 21.3181C19.9243 20.7866 19.8605 19.9574 19.4353 19.5747C18.3084 18.5329 15.0555 18.9369 13.5672 17.1084C12.9293 16.3218 12.8018 14.9185 13.5884 13.898C14.9704 12.1121 19.0313 12.0058 20.7747 13.3452C22.3906 14.5996 21.9441 16.2367 20.6471 16.2367C19.0951 16.2367 19.903 14.1957 17.3729 14.1957C15.5445 14.1957 14.8216 15.4926 16.1185 16.1304C17.8619 17.0234 22.3055 16.7257 22.3055 20.1275C22.3055 21.5308 21.4338 22.5726 20.0944 23.1253Z" fill="white"/>
</g>
<defs>
<clipPath id="clip0_2020_3987">
<rect width="17" height="17" fill="white" transform="translate(9 9.5)"/>
</clipPath>
</defs>
</svg>
