<svg width="123" height="36" viewBox="0 0 123 36" fill="none" xmlns="http://www.w3.org/2000/svg">
<path fill-rule="evenodd" clip-rule="evenodd" d="M0.5 0H25.5153V36H0.5V0ZM4.10555 32.3759H21.8973V3.62552H4.10555V32.3759Z" fill="#3B4653"/>
<path fill-rule="evenodd" clip-rule="evenodd" d="M40.5845 16.1517C38.5519 13.268 36.5361 10.4024 34.5229 7.16388H34.5084V16.1517H32.7979V3.61994H34.3466C36.3792 6.4834 38.3923 9.32873 40.3866 12.5506H40.422V3.61994H42.1325V16.1517H40.5845ZM46.1976 11.1917C46.6939 9.54418 47.1937 8.02285 47.6401 6.08878H47.6762C48.1746 8.02285 48.621 9.54487 49.084 11.1917H46.1976ZM47.0153 3.61994L42.7045 16.1517H44.5579L45.6422 12.7311H49.4054L50.3849 16.1517H52.7749L48.7987 3.61994H47.0153ZM54.7873 16.1517V5.30093H51.5066V3.61994H60.204V5.30093H56.9261V16.1517H54.7873ZM60.8975 3.61994H63.0216V16.1517H60.8975V3.61994ZM69.6163 14.5739C67.3859 14.5739 66.6022 12.1037 66.6022 9.70454C66.6022 7.39606 67.4928 5.19356 69.6163 5.19356C71.737 5.19356 72.6249 7.39606 72.6249 9.70454C72.6249 12.1037 71.8425 14.5739 69.6163 14.5739ZM69.6163 16.3636C72.8768 16.3636 74.908 13.4472 74.908 9.70384C74.908 6.19615 72.6658 3.40381 69.6163 3.40381C66.5696 3.40381 64.3177 6.19615 64.3177 9.70384C64.3184 13.4479 66.353 16.3636 69.6163 16.3636ZM83.9989 16.1517C81.965 13.268 79.9505 10.4024 77.9388 7.16388H77.9214V16.1517H76.2131V3.61994H77.7625C79.7922 6.4834 81.8067 9.32873 83.7997 12.5506H83.8365V3.61994H85.549V16.1517H83.9989ZM89.612 11.1917C90.1125 9.54418 90.6089 8.02285 91.0573 6.08878H91.0927C91.5918 8.02285 92.0361 9.54487 92.4984 11.1917H89.612ZM90.4339 3.61994L86.121 16.1517H87.9759L89.0602 12.7311H92.8226L93.8028 16.1517H96.19L92.2145 3.61994H90.4339ZM96.8113 3.61994H98.9362V14.4679H103.158V16.1517H96.8113V3.61994ZM40.817 26.6336V31.8056C39.6751 32.2553 38.4804 32.5753 37.2719 32.5753C33.599 32.5753 31.2825 29.7111 31.2825 26.0229C31.2825 22.6023 33.599 19.6141 37.342 19.6141C38.4985 19.6141 39.6578 20.0456 40.3714 20.5818L39.6758 22.0676C39.1066 21.7127 38.2132 21.408 37.3947 21.408C35.1151 21.408 33.5629 23.2166 33.5629 26.0633C33.5629 29.0327 35.3462 30.7855 37.1823 30.7855C37.7502 30.7855 38.234 30.7172 38.6817 30.4822V26.6336H40.817ZM48.4669 21.5154H44.8981V24.9505H48.3912V26.6336H44.8981V30.6768H49.1041V32.3619H42.7579V19.8295H48.4669V21.5154ZM55.0608 30.7848C52.8304 30.7848 52.0453 28.3167 52.0453 25.9162C52.0453 23.6091 52.9366 21.4073 55.0608 21.4073C57.1801 21.4073 58.0694 23.6091 58.0694 25.9162C58.0694 28.3167 57.2836 30.7848 55.0608 30.7848ZM55.0608 32.5753C58.3207 32.5753 60.3511 29.6574 60.3511 25.9155C60.3511 22.4078 58.1069 19.6134 55.0608 19.6134C52.0092 19.6134 49.7663 22.4078 49.7663 25.9155C49.7657 29.6581 51.794 32.5753 55.0608 32.5753ZM70.6159 26.6336V31.8056C69.474 32.2553 68.2828 32.5753 67.0694 32.5753C63.3993 32.5753 61.0807 29.7111 61.0807 26.0229C61.0807 22.6023 63.3993 19.6141 67.1423 19.6141C68.3015 19.6141 69.458 20.0456 70.1696 20.5818L69.474 22.0676C68.9034 21.7127 68.0176 21.408 67.1964 21.408C64.9119 21.408 63.3611 23.2166 63.3611 26.0633C63.3611 29.0327 65.1451 30.7855 66.9812 30.7855C67.5532 30.7855 68.0322 30.7172 68.4792 30.4822V26.6336H70.6159ZM74.7199 21.5154H75.6619C76.9239 21.5154 77.6389 22.246 77.6389 23.5366C77.6389 25.2176 76.6247 25.9685 75.6077 26.0222C75.3932 26.0438 74.8934 26.0619 74.7199 26.0772V21.5154ZM80.1365 32.3619L77.6188 27.1726C78.9911 26.4405 79.7797 24.9505 79.7797 23.4466C79.7797 21.0099 78.2977 19.8295 75.909 19.8295H72.5763V32.3619H74.7199V27.6362H75.6813L77.6917 32.3619H80.1365ZM83.6643 27.4026C84.1621 25.753 84.6612 24.2331 85.1082 22.2997H85.1436C85.6427 24.2331 86.087 25.753 86.5507 27.4026H83.6643ZM84.4828 19.8295L80.1685 32.3619H82.0219L83.1104 28.9414H86.8728L87.8474 32.3619H90.2403L86.2633 19.8295H84.4828ZM94.2491 19.8295H90.9164V32.3619H93.0558V27.6362H94.0159C96.5663 27.6362 98.1185 25.5592 98.1185 23.4466C98.1185 21.0092 96.6378 19.8295 94.2491 19.8295ZM93.9492 26.0229C93.7271 26.0431 93.2051 26.0598 93.0558 26.0744V21.5154H94.0159C95.2633 21.5154 95.979 22.246 95.979 23.5366C95.979 25.2176 94.9662 25.9692 93.9492 26.0229ZM108.026 32.3619H105.888V26.331H101.447V32.3619H99.3319V19.8295H101.447V24.6452H105.888V19.8651H108.026V32.3619ZM110.074 19.8295H112.2V32.3619H110.074V19.8295ZM121.82 22.1045C121.303 21.7817 120.451 21.4073 119.627 21.4073C117.449 21.4073 115.869 23.2159 115.869 26.0626C115.869 29.032 117.614 30.7848 119.682 30.7848C120.44 30.7812 121.18 30.5638 121.82 30.1573L122.41 31.7163C121.765 32.1632 120.628 32.5753 119.596 32.5753C115.923 32.5753 113.604 29.7111 113.604 26.0229C113.604 22.6023 115.903 19.6141 119.627 19.6141C120.735 19.6141 121.765 20.0826 122.5 20.5818L121.82 22.1045Z" fill="#3B4653"/>
</svg>
