<svg width="119" height="30" viewBox="0 0 119 30" fill="none" xmlns="http://www.w3.org/2000/svg">
<path d="M38.2932 23.5039L39.7623 20.1024C41.3498 21.2835 43.4586 21.8976 45.5438 21.8976C47.0839 21.8976 48.0554 21.3071 48.0554 20.4094C48.0317 17.9055 38.8382 19.8661 38.7671 13.5827C38.7434 10.3937 41.5868 7.937 45.6149 7.937C48.008 7.937 50.4012 8.52755 52.1072 9.87401L50.7329 13.3465C49.1691 12.3543 47.2261 11.6457 45.3779 11.6457C44.1221 11.6457 43.2928 12.2362 43.2928 12.9921C43.3165 15.4488 52.5811 14.1024 52.6759 20.1024C52.6759 23.3622 49.9036 25.6535 45.9229 25.6535C43.0084 25.6535 40.3309 24.9685 38.2932 23.5039ZM94.6631 18.874C93.9285 20.1496 92.5542 21.0236 90.9667 21.0236C88.6209 21.0236 86.7253 19.1339 86.7253 16.7953C86.7253 14.4567 88.6209 12.5669 90.9667 12.5669C92.5542 12.5669 93.9285 13.4409 94.6631 14.7165L98.7149 12.4724C97.1984 9.77952 94.2839 7.937 90.9667 7.937C86.0619 7.937 82.0811 11.9055 82.0811 16.7953C82.0811 21.685 86.0619 25.6535 90.9667 25.6535C94.3076 25.6535 97.1984 23.8346 98.7149 21.1181L94.6631 18.874ZM54.7137 0.590545H59.7843V25.3228H54.7137V0.590545ZM100.705 0.590545V25.3228H105.776V17.9055L111.794 25.3228H118.287L110.633 16.5118L117.718 8.29133H111.51L105.776 15.1181V0.590545H100.705ZM74.8542 18.9213C74.1197 20.126 72.6032 21.0236 70.8972 21.0236C68.5514 21.0236 66.6558 19.1339 66.6558 16.7953C66.6558 14.4567 68.5514 12.5669 70.8972 12.5669C72.6032 12.5669 74.1197 13.5118 74.8542 14.7402V18.9213ZM74.8542 8.29133V10.2992C74.0249 8.90551 71.9635 7.937 69.8072 7.937C65.3526 7.937 61.8458 11.8583 61.8458 16.7716C61.8458 21.685 65.3526 25.6535 69.8072 25.6535C71.9635 25.6535 74.0249 24.685 74.8542 23.2913V25.2992H79.9249V8.29133H74.8542Z" fill="#34CE83"/>
<path d="M6.94523 18.8976C6.94523 20.622 5.54724 22.0157 3.81752 22.0157C2.0878 22.0157 0.68981 20.622 0.68981 18.8976C0.68981 17.1732 2.0878 15.7795 3.81752 15.7795H6.94523V18.8976ZM8.50909 18.8976C8.50909 17.1732 9.90708 15.7795 11.6368 15.7795C13.3665 15.7795 14.7645 17.1732 14.7645 18.8976V26.6929C14.7645 28.4173 13.3665 29.811 11.6368 29.811C9.90708 29.811 8.50909 28.4173 8.50909 26.6929V18.8976Z" fill="#34CE83"/>
<path d="M11.6365 6.37794C9.90683 6.37794 8.50883 4.98424 8.50883 3.25983C8.50883 1.53542 9.90683 0.141724 11.6365 0.141724C13.3663 0.141724 14.7643 1.53542 14.7643 3.25983V6.37794H11.6365ZM11.6365 7.96062C13.3663 7.96062 14.7643 9.35432 14.7643 11.0787C14.7643 12.8031 13.3663 14.1968 11.6365 14.1968H3.79357C2.06386 14.1968 0.665863 12.8031 0.665863 11.0787C0.665863 9.35432 2.06386 7.96062 3.79357 7.96062H11.6365Z" fill="#34CE83"/>
<path d="M24.1711 11.0787C24.1711 9.35432 25.5691 7.96062 27.2988 7.96062C29.0285 7.96062 30.4265 9.35432 30.4265 11.0787C30.4265 12.8031 29.0285 14.1968 27.2988 14.1968H24.1711V11.0787ZM22.6072 11.0787C22.6072 12.8031 21.2092 14.1968 19.4795 14.1968C17.7498 14.1968 16.3518 12.8031 16.3518 11.0787V3.25983C16.3518 1.53542 17.7498 0.141724 19.4795 0.141724C21.2092 0.141724 22.6072 1.53542 22.6072 3.25983V11.0787Z" fill="#34CE83"/>
<path d="M19.4795 23.5748C21.2092 23.5748 22.6072 24.9685 22.6072 26.6929C22.6072 28.4173 21.2092 29.811 19.4795 29.811C17.7498 29.811 16.3518 28.4173 16.3518 26.6929V23.5748H19.4795ZM19.4795 22.0157C17.7498 22.0157 16.3518 20.622 16.3518 18.8976C16.3518 17.1732 17.7498 15.7795 19.4795 15.7795H27.3225C29.0522 15.7795 30.4502 17.1732 30.4502 18.8976C30.4502 20.622 29.0522 22.0157 27.3225 22.0157H19.4795Z" fill="#34CE83"/>
</svg>
