<svg width="117" height="36" viewBox="0 0 117 36" fill="none" xmlns="http://www.w3.org/2000/svg">
<path d="M61.6341 9.04504C61.6341 10.3423 60.5831 11.3874 59.2785 11.3874C57.974 11.3874 56.923 10.3423 56.923 9.04504C56.923 7.74775 57.9377 6.7027 59.2785 6.7027C60.6194 6.73874 61.6341 7.78378 61.6341 9.04504ZM51.9221 13.7658C51.9221 13.982 51.9221 14.3423 51.9221 14.3423C51.9221 14.3423 50.7987 12.9009 48.4069 12.9009C44.4569 12.9009 41.3766 15.8919 41.3766 20.036C41.3766 24.1441 44.4207 27.1712 48.4069 27.1712C50.8349 27.1712 51.9221 25.6937 51.9221 25.6937V26.3063C51.9221 26.5946 52.1395 26.8108 52.4294 26.8108H55.3648V13.2613C55.3648 13.2613 52.6831 13.2613 52.4294 13.2613C52.1395 13.2613 51.9221 13.5135 51.9221 13.7658ZM51.9221 22.4504C51.3785 23.2432 50.2914 23.9279 48.9868 23.9279C46.6675 23.9279 44.8918 22.4865 44.8918 20.036C44.8918 17.5856 46.6675 16.1441 48.9868 16.1441C50.2551 16.1441 51.4148 16.8649 51.9221 17.6216V22.4504ZM57.5391 13.2613H61.018V26.8108H57.5391V13.2613ZM109.505 12.9009C107.114 12.9009 105.99 14.3423 105.99 14.3423V6.73874H102.511V26.8108C102.511 26.8108 105.193 26.8108 105.447 26.8108C105.737 26.8108 105.954 26.5586 105.954 26.3063V25.6937C105.954 25.6937 107.077 27.1712 109.469 27.1712C113.419 27.1712 116.499 24.1441 116.499 20.036C116.499 15.9279 113.419 12.9009 109.505 12.9009ZM108.926 23.8919C107.585 23.8919 106.534 23.2072 105.99 22.4144V17.5856C106.534 16.8649 107.693 16.1081 108.926 16.1081C111.245 16.1081 113.021 17.5495 113.021 20C113.021 22.4505 111.245 23.8919 108.926 23.8919ZM100.699 18.7748V26.8468H97.2204V19.1712C97.2204 16.9369 96.4957 16.036 94.5388 16.036C93.4879 16.036 92.4007 16.5766 91.7122 17.3694V26.8108H88.2333V13.2613H90.9874C91.2773 13.2613 91.4947 13.5135 91.4947 13.7658V14.3423C92.5094 13.2973 93.8502 12.9009 95.1911 12.9009C96.7131 12.9009 97.9815 13.3333 98.9961 14.1982C100.228 15.2072 100.699 16.5045 100.699 18.7748ZM79.7896 12.9009C77.3979 12.9009 76.2745 14.3423 76.2745 14.3423V6.73874H72.7956V26.8108C72.7956 26.8108 75.4772 26.8108 75.7309 26.8108C76.0208 26.8108 76.2383 26.5586 76.2383 26.3063V25.6937C76.2383 25.6937 77.3616 27.1712 79.7534 27.1712C83.7034 27.1712 86.7837 24.1441 86.7837 20.036C86.8199 15.9279 83.7397 12.9009 79.7896 12.9009ZM79.2098 23.8919C77.869 23.8919 76.8181 23.2072 76.2745 22.4144V17.5856C76.8181 16.8649 77.9777 16.1081 79.2098 16.1081C81.5291 16.1081 83.3048 17.5495 83.3048 20C83.3048 22.4505 81.5291 23.8919 79.2098 23.8919ZM69.7878 12.9009C70.8387 12.9009 71.3823 13.0811 71.3823 13.0811V16.2883C71.3823 16.2883 68.4832 15.3153 66.6712 17.3694V26.8468H63.1923V13.2613C63.1923 13.2613 65.874 13.2613 66.1277 13.2613C66.4176 13.2613 66.635 13.5135 66.635 13.7658V14.3423C67.2873 13.5856 68.7006 12.9009 69.7878 12.9009ZM33.6578 25.5856C33.4766 25.1532 33.2954 24.6847 33.1142 24.2883C32.8243 23.6396 32.5344 23.027 32.2807 22.4504L32.2445 22.4144C29.744 17.009 27.0624 11.5315 24.2358 6.12613L24.127 5.90991C23.8371 5.36937 23.5472 4.79279 23.2573 4.21622C22.8949 3.56757 22.5325 2.88288 21.9527 2.23423C20.7931 0.792793 19.1261 0 17.3504 0C15.5385 0 13.9077 0.792793 12.7119 2.16216C12.1683 2.81081 11.7696 3.4955 11.4073 4.14414C11.1174 4.72072 10.8274 5.2973 10.5375 5.83784L10.4288 6.05405C7.63844 11.4595 4.92054 16.9369 2.42007 22.3423L2.38383 22.4144C2.13016 22.991 1.84025 23.6036 1.55034 24.2523C1.36915 24.6486 1.18795 25.0811 1.00676 25.5495C0.535657 26.8829 0.390703 28.1441 0.571896 29.4414C0.970522 32.1441 2.78246 34.4144 5.28292 35.4234C6.22513 35.8198 7.20357 36 8.21826 36C8.50817 36 8.87055 35.964 9.16046 35.9279C10.3563 35.7838 11.5885 35.3874 12.7843 34.7027C14.2701 33.8739 15.6834 32.6847 17.2779 30.955C18.8724 32.6847 20.322 33.8739 21.7715 34.7027C22.9674 35.3874 24.1995 35.7838 25.3954 35.9279C25.6853 35.964 26.0477 36 26.3376 36C27.3523 36 28.367 35.8198 29.2729 35.4234C31.8096 34.4144 33.5853 32.1081 33.984 29.4414C34.2739 28.1802 34.1289 26.9189 33.6578 25.5856ZM17.3142 27.4595C15.3573 25.009 14.0889 22.7027 13.6541 20.7568C13.4729 19.9279 13.4366 19.2072 13.5453 18.5586C13.6178 17.982 13.8353 17.4775 14.1252 17.045C14.8137 16.0721 15.9733 15.4595 17.3142 15.4595C18.655 15.4595 19.8509 16.036 20.5032 17.045C20.7931 17.4775 21.0105 17.982 21.083 18.5586C21.1917 19.2072 21.1555 19.964 20.9743 20.7568C20.5394 22.6667 19.2711 24.973 17.3142 27.4595ZM31.7734 29.1532C31.5197 31.027 30.2514 32.6486 28.4757 33.3694C27.6059 33.7297 26.6637 33.8378 25.7215 33.7297C24.8156 33.6216 23.9096 33.3333 22.9674 32.7928C21.6628 32.0721 20.3582 30.955 18.8362 29.2973C21.2279 26.3784 22.6775 23.7117 23.2211 21.3333C23.4747 20.2162 23.511 19.2072 23.4023 18.2703C23.2573 17.3694 22.9312 16.5405 22.4238 15.8198C21.3004 14.1982 19.416 13.2613 17.3142 13.2613C15.2123 13.2613 13.3279 14.2342 12.2045 15.8198C11.6972 16.5405 11.371 17.3694 11.2261 18.2703C11.0811 19.2072 11.1174 20.2523 11.4073 21.3333C11.9508 23.7117 13.4366 26.4144 15.7921 29.3333C14.3064 30.991 12.9655 32.1081 11.6609 32.8288C10.7187 33.3694 9.81276 33.6577 8.90679 33.7658C7.92835 33.8739 6.98614 33.7297 6.15265 33.4054C4.37696 32.6847 3.1086 31.0631 2.85493 29.1892C2.74622 28.2883 2.81869 27.3874 3.18108 26.3784C3.2898 26.018 3.47099 25.6577 3.65218 25.2252C3.90585 24.6486 4.19576 24.036 4.48567 23.4234L4.52191 23.3514C7.02238 17.982 9.70404 12.5045 12.4944 7.17117L12.6031 6.95495C12.893 6.41441 13.183 5.83784 13.4729 5.2973C13.7628 4.72072 14.0889 4.18018 14.4875 3.71171C15.2486 2.84685 16.2632 2.37838 17.3866 2.37838C18.51 2.37838 19.5247 2.84685 20.2857 3.71171C20.6844 4.18018 21.0105 4.72072 21.3004 5.2973C21.5903 5.83784 21.8802 6.41441 22.1701 6.95495L22.2789 7.17117C25.033 12.5405 27.7147 18.018 30.2151 23.3874V23.4234C30.505 24 30.7587 24.6486 31.0486 25.2252C31.2298 25.6577 31.411 26.018 31.5197 26.3784C31.8096 27.3153 31.9184 28.2162 31.7734 29.1532Z" fill="#E54D50"/>
</svg>
