<svg width="36" height="36" viewBox="0 0 36 36" fill="none" xmlns="http://www.w3.org/2000/svg">
<rect x="0.5" y="0.5" width="35" height="35" rx="11.5" stroke="white"/>
<g clip-path="url(#clip0_2020_3886)">
<path d="M15.6704 20.2532L15.3892 24.2085C15.7915 24.2085 15.9658 24.0357 16.1747 23.8282L18.061 22.0255L21.9696 24.8878C22.6864 25.2873 23.1915 25.077 23.3848 24.2284L25.9504 12.2065L25.9511 12.2058C26.1785 11.1462 25.5679 10.7318 24.8695 10.9918L9.78909 16.7654C8.75988 17.1649 8.77546 17.7386 9.61413 17.9986L13.4696 19.1978L22.425 13.5942C22.8465 13.3151 23.2297 13.4695 22.9145 13.7486L15.6704 20.2532Z" fill="white"/>
</g>
<defs>
<clipPath id="clip0_2020_3886">
<rect width="17" height="17" fill="white" transform="translate(9 9.5)"/>
</clipPath>
</defs>
</svg>
