<svg width="36" height="36" viewBox="0 0 36 36" fill="none" xmlns="http://www.w3.org/2000/svg">
<rect x="0.5" y="0.5" width="35" height="35" rx="11.5" stroke="#001A48"/>
<g clip-path="url(#clip0_2025_4030)">
<path d="M25.4947 19.7873C26.7279 14.2594 21.8804 9.24182 16.1824 10.1986C13.0995 8.28506 8.99609 10.4537 8.99609 14.1319C8.99609 14.9823 9.22997 15.7902 9.63393 16.4706C8.50709 22.0198 13.3759 26.9736 19.0739 25.9318C23.0922 28.0579 27.5146 23.827 25.4947 19.7873ZM20.0944 23.1253C18.6061 23.7419 16.1398 23.7419 14.6516 22.9553C12.5254 21.8284 12.164 19.2771 13.9925 19.2771C15.3744 19.2771 14.928 20.8929 16.3312 21.5308C16.969 21.8284 18.351 21.8497 19.1377 21.3181C19.9243 20.7866 19.8605 19.9574 19.4353 19.5747C18.3085 18.5329 15.0555 18.9369 13.5672 17.1084C12.9294 16.3218 12.8018 14.9185 13.5885 13.898C14.9705 12.1121 19.0314 12.0058 20.7748 13.3452C22.3906 14.5996 21.9441 16.2367 20.6472 16.2367C19.0951 16.2367 19.9031 14.1957 17.373 14.1957C15.5445 14.1957 14.8216 15.4926 16.1186 16.1304C17.862 17.0234 22.3056 16.7257 22.3056 20.1275C22.3056 21.5308 21.4339 22.5726 20.0944 23.1253Z" fill="#001A48"/>
</g>
<defs>
<clipPath id="clip0_2025_4030">
<rect width="17" height="17" fill="white" transform="translate(9 9.5)"/>
</clipPath>
</defs>
</svg>
